<svg width="60" height="60" viewBox="0 0 60 60" fill="none" xmlns="http://www.w3.org/2000/svg">
<path d="M30 5C43.785 5 55 16.215 55 30C55 43.785 43.785 55 30 55C16.215 55 5 43.785 5 30C5 16.215 16.215 5 30 5ZM30 0C13.4325 0 0 13.4325 0 30C0 46.5675 13.4325 60 30 60C46.5675 60 60 46.5675 60 30C60 13.4325 46.5675 0 30 0ZM30 17.705C34.005 17.705 34.48 17.72 36.0625 17.7925C40.13 17.9775 42.025 19.905 42.2125 23.94C42.2825 25.5225 42.2975 25.995 42.2975 30C42.2975 34.005 42.2825 34.48 42.2125 36.06C42.025 40.0925 40.1325 42.025 36.0625 42.21C34.48 42.28 34.0075 42.2975 30 42.2975C25.995 42.2975 25.52 42.2825 23.94 42.21C19.865 42.0225 17.9775 40.0875 17.79 36.06C17.72 34.48 17.7025 34.005 17.7025 30C17.7025 25.995 17.72 25.52 17.79 23.94C17.975 19.9025 19.87 17.975 23.94 17.79C25.52 17.7175 25.995 17.705 30 17.705ZM30 15C25.925 15 25.4175 15.0175 23.815 15.0925C18.365 15.3425 15.34 18.365 15.09 23.815C15.0175 25.4175 15 25.9275 15 30C15 34.075 15.0175 34.585 15.09 36.185C15.34 41.6325 18.365 44.66 23.815 44.91C25.4175 44.9825 25.925 45 30 45C34.075 45 34.585 44.9825 36.1875 44.91C41.6275 44.66 44.665 41.6375 44.91 36.185C44.9825 34.585 45 34.075 45 30C45 25.9275 44.9825 25.4175 44.91 23.815C44.665 18.3725 41.6375 15.34 36.1875 15.0925C34.585 15.0175 34.075 15 30 15ZM30 22.2975C25.7475 22.2975 22.2975 25.745 22.2975 30C22.2975 34.255 25.7475 37.7025 30 37.7025C34.2525 37.7025 37.7025 34.255 37.7025 30C37.7025 25.7475 34.2525 22.2975 30 22.2975ZM30 35C27.2375 35 25 32.7625 25 30C25 27.24 27.2375 25 30 25C32.76 25 35.0025 27.2375 35.0025 30C35.0025 32.7625 32.76 35 30 35ZM38.005 20.195C37.0125 20.195 36.205 21 36.205 21.995C36.205 22.9875 37.01 23.795 38.005 23.795C39 23.795 39.8075 22.99 39.8075 21.995C39.8075 21 39.0025 20.195 38.005 20.195Z" fill="#D32F2F"/>
</svg>
