<svg width="60" height="60" viewBox="0 0 60 60" fill="none" xmlns="http://www.w3.org/2000/svg">
<path d="M30 5C43.785 5 55 16.215 55 30C55 43.785 43.785 55 30 55C16.215 55 5 43.785 5 30C5 16.215 16.215 5 30 5ZM30 0C13.4325 0 0 13.4325 0 30C0 46.5675 13.4325 60 30 60C46.5675 60 60 46.5675 60 30C60 13.4325 46.5675 0 30 0ZM41.25 43.2775L36.85 34.785L34.27 36.0475C31.47 37.405 25.77 26.2725 28.5075 24.805L31.1125 23.5225L26.745 15L24.1125 16.3C15.11 20.9925 29.405 48.7775 38.6125 44.57L41.25 43.2775Z" fill="#D32F2F"/>
</svg>
