<svg width="60" height="60" viewBox="0 0 60 60" fill="none" xmlns="http://www.w3.org/2000/svg">
<g clip-path="url(#clip0)">
<path d="M30 5.05005C43.785 5.05005 55 16.265 55 30.05C55 43.835 43.785 55.05 30 55.05C16.215 55.05 5 43.835 5 30.05C5 16.265 16.215 5.05005 30 5.05005ZM30 0.0500488C13.4325 0.0500488 0 13.4825 0 30.05C0 46.6175 13.4325 60.05 30 60.05C46.5675 60.05 60 46.6175 60 30.05C60 13.4825 46.5675 0.0500488 30 0.0500488ZM30 31.425L15.02 20H44.9775L30 31.425ZM30 34.645L15 23.0725V40H45V23.0725L30 34.645Z" fill="#D32F2F"/>
</g>
<defs>
<clipPath id="clip0">
<rect width="60" height="60" fill="white"/>
</clipPath>
</defs>
</svg>
