<svg width="85" height="80" viewBox="0 0 85 80" fill="none" xmlns="http://www.w3.org/2000/svg">
<g clip-path="url(#clip0)">
<path d="M77.3659 56.6667V17.3334C77.3659 15.1234 75.4948 13.3334 73.1847 13.3334H11.8606C9.55054 13.3334 7.67946 15.1234 7.67946 17.3334V56.6667H77.3659ZM14.6481 20H70.3972V50H14.6481V20ZM84.3345 60V62.6667C84.3345 64.8767 82.4634 66.6667 80.1533 66.6667H4.892C2.5819 66.6667 0.710815 64.8767 0.710815 62.6667V60H35.554C35.554 60.92 36.3345 61.6667 37.2962 61.6667H47.7491C48.7108 61.6667 49.4913 60.92 49.4913 60H84.3345Z" fill="#D32F2F"/>
</g>
<defs>
<clipPath id="clip0">
<rect width="83.6237" height="80" fill="white" transform="translate(0.710815)"/>
</clipPath>
</defs>
</svg>
