<svg width="85" height="80" viewBox="0 0 85 80" fill="none" xmlns="http://www.w3.org/2000/svg">
<g clip-path="url(#clip0)">
<path fill-rule="evenodd" clip-rule="evenodd" d="M84.3345 37.9134C84.3345 53.08 71.1533 61.1134 59.4356 60.5667C58.9094 65.3934 59.6481 69.3734 60.7735 72.7034L47.8119 76.6667C46.6342 72.9034 44.3519 63.9267 38.223 59.07C28.7178 61.7434 20.9094 56.9167 18.0697 50.3134C8.19862 50.4667 0.710815 44.1934 0.710815 35.1367C0.710815 21.14 16.7526 3.33337 42.4878 3.33337C68.7317 3.33337 84.3345 21.2567 84.3345 37.9134ZM7.70733 34.35C7.2021 42.19 15.2997 44.5834 23.1777 43.77C24.3484 51.8667 32.9547 54.7 39.3868 51.7567C44.791 54.2234 48.9582 59.6567 52.3798 68.3134L52.3868 68.3334L52.7735 68.2134C52.0105 62.95 52.4599 57.1334 54.0279 53.12C67.6411 55.4067 77.892 49.2767 77.338 37.0267C76.7596 24.2634 64.5958 10.3234 43.0418 9.99671C21.0836 9.86004 8.34845 24.18 7.70733 34.35ZM36.1568 26.07C33.7457 25.0234 32.0697 22.6967 32.0697 20C32.0697 16.32 35.1917 13.3334 39.0383 13.3334C42.885 13.3334 46.007 16.32 46.007 20C46.007 20.8667 45.8328 21.6967 45.5157 22.46C49.7491 25.4967 53.8955 28.6434 58.0592 31.7734C59.5366 30.6634 61.4042 30 63.4286 30C68.2369 30 72.1394 33.7334 72.1394 38.3334C72.1394 42.9334 68.2369 46.6667 63.4286 46.6667C59.3484 46.6667 55.9199 43.9767 54.9756 40.35C50.791 40.6767 46.5993 40.9267 42.4112 41.1967C41.8188 44.3067 38.9721 46.6667 35.554 46.6667C31.7073 46.6667 28.5854 43.68 28.5854 40C28.5854 36.5567 31.3171 33.72 34.8223 33.37C35.2404 30.9334 35.7004 28.5034 36.1568 26.07ZM43.331 25.25C42.2997 26.0234 41.0314 26.5267 39.6481 26.64L38.3833 33.9067C40.1394 34.6534 41.5122 36.0767 42.1429 37.83L54.8537 36.8667C55.0174 35.9767 55.331 35.1367 55.7666 34.37L43.331 25.25Z" fill="#D32F2F"/>
</g>
<defs>
<clipPath id="clip0">
<rect width="83.6237" height="80" fill="white" transform="translate(0.710815)"/>
</clipPath>
</defs>
</svg>
