<svg width="80" height="80" viewBox="0 0 80 80" fill="none" xmlns="http://www.w3.org/2000/svg">
<g clip-path="url(#clip0)">
<path fill-rule="evenodd" clip-rule="evenodd" d="M40 74.1533C38.5734 74.1533 36.3367 71.79 34.3734 66.5667C32.4434 67.55 30.7667 68.3233 29.1367 69.0267C31.6934 75.6667 35.33 80 40 80C44.8 80 48.5067 75.43 51.0734 68.4933C49.4567 67.8233 47.75 67.06 45.8034 66.0967C43.8067 71.6533 41.4767 74.1533 40 74.1533ZM24.3034 66.7667C13.9734 70.5633 3.33671 70.66 3.33671 61.2867C3.33671 58.1567 4.78671 53.7633 9.32337 47.68C11.26 45.0833 13.5034 42.53 15.78 40.1867C20.8834 35.0033 26.6334 30.02 34.13 24.8567C30.52 22.87 26.5834 20.9667 22.7434 19.5567C18.81 18.1067 15.3467 17.3033 12.6934 17.3033C11 17.3033 9.74004 17.66 9.33004 18.2633C8.88671 18.9033 8.87004 20.8767 10.8134 24.4067L11.5134 24.3633C15.0034 24.3633 17.84 27.25 17.84 30.8067C17.84 34.3633 15.0034 37.2433 11.5134 37.2433C8.02004 37.2433 5.19004 34.3633 5.19004 30.8067C5.19004 29.6533 5.48671 28.5733 6.00671 27.6367C4.04004 24.17 3.33337 21.4367 3.33337 19.2933C3.33337 14.2433 7.18004 11.4467 12.6934 11.4467C21.0734 11.4467 32.36 16.9867 39.6334 21.2667C47.0134 16.7233 58.69 10.7367 67.3134 10.7367C73.6234 10.7367 76.67 14.25 76.67 18.72C76.67 21.85 75.2167 26.24 70.6834 32.32C60.4034 46.11 39.9634 61.0067 24.3034 66.7667ZM74.0267 52.4167C74.5 51.5167 74.76 50.4967 74.76 49.41C74.76 45.85 71.93 42.9667 68.4367 42.9667C64.9434 42.9667 62.1134 45.85 62.1134 49.41C62.1134 52.9633 64.9434 55.8433 68.4367 55.8433L69.2967 55.7867C71.1367 59.2 71.11 61.11 70.68 61.7433C70.2667 62.3467 69.01 62.7 67.3134 62.7C61.9734 62.7 54.5367 59.5533 49.7467 57.1767C48.1467 58.3167 46.1634 59.67 44.2234 60.9067C50.64 64.36 60.08 68.5567 67.3134 68.5567C72.78 68.5567 76.6734 65.79 76.6734 60.71C76.6734 58.5833 75.97 55.86 74.0267 52.4167ZM31.2467 52.8133H31.2434L31.2 52.78C27.3867 50.08 23.6267 47.1133 20.1434 44.01C10.7534 53.6 8.10671 60.5533 9.35004 62.4233C9.77004 63.0533 10.99 63.42 12.6934 63.42C20.5267 63.42 32.96 56.6933 40.3167 51.87C49.3467 45.9533 59.65 37.4433 66.1034 28.7833C71.1234 22.0567 71.2767 18.5133 70.6567 17.58C70.2367 16.9467 69.02 16.5867 67.3134 16.5867C60.8067 16.5867 50.9 21.45 45.1934 24.7433C49.4034 27.53 53.3367 30.4733 56.9267 33.4633C55.5667 34.8467 54.1467 36.1933 52.6934 37.5C48.7067 34.2267 44.28 31.0133 39.69 28.1333C34.42 31.5867 29.1134 35.6467 24.3467 39.9733C27.93 43.1433 32.2 46.47 36.75 49.55C35.01 50.6533 33.2534 51.7067 31.2467 52.8133ZM40 33.3333C43.68 33.3333 46.6667 36.32 46.6667 40C46.6667 43.68 43.68 46.6667 40 46.6667C36.32 46.6667 33.3334 43.68 33.3334 40C33.3334 36.32 36.32 33.3333 40 33.3333ZM34.2034 13.9067C32.27 12.9567 30.5534 12.18 28.9334 11.5133C31.5 4.57333 35.2067 0 40 0C44.6767 0 48.3167 4.34 50.87 10.9733C49.2367 11.68 47.55 12.4633 45.63 13.4367C43.6734 8.21333 41.4367 5.85333 40 5.85333C38.53 5.85333 36.2034 8.35333 34.2034 13.9067Z" fill="#D32F2F"/>
</g>
<defs>
<clipPath id="clip0">
<rect width="80" height="80" fill="white"/>
</clipPath>
</defs>
</svg>
